<svg xmlns="http://www.w3.org/2000/svg" width="120" height="120" viewBox="0 0 120 120">
  <defs>
    <linearGradient id="grad1" x1="0%" y1="0%" x2="100%" y2="100%">
      <stop offset="0%" stop-color="#072c42" stop-opacity="1"/>
      <stop offset="25%" stop-color="#1b0c4d" stop-opacity="1"/>
      <stop offset="100%" stop-color="#250229" stop-opacity="1"/>
    </linearGradient>
    <linearGradient id="grad2" gradientUnits="userSpaceOnUse" x1="0%" y1="0%" x2="100%" y2="100%">
      <stop offset="0%" stop-color="#ffffff" stop-opacity="1"/>
      <stop offset="50%" stop-color="#502CC4" stop-opacity="1"/>
      <stop offset="100%" stop-color="#aaaaaa" stop-opacity="1"/>
    </linearGradient>
  </defs>
  <rect width="100%" height="100%" fill="url(#grad1)" rx="10%" ry="10%"/>
  <svg x="10" y="10" xmlns="http://www.w3.org/2000/svg" width="100" height="100" viewBox="0 0 24 24" fill="none" stroke="url(#grad2)"
       stroke-width="2" stroke-linecap="round" stroke-linejoin="round">
    <line x1="6" x2="10" y1="11" y2="11" />
    <line x1="8" x2="8" y1="9" y2="13" />
    <line x1="15" x2="15.01" y1="12" y2="12" />
    <line x1="18" x2="18.01" y1="10" y2="10" />
    <path
      d="M17.32 5H6.68a4 4 0 0 0-3.978 3.59c-.006.052-.01.101-.017.152C2.604 9.416 2 14.456 2 16a3 3 0 0 0 3 3c1 0 1.5-.5 2-1l1.414-1.414A2 2 0 0 1 9.828 16h4.344a2 2 0 0 1 1.414.586L17 18c.5.5 1 1 2 1a3 3 0 0 0 3-3c0-1.545-.604-6.584-.685-7.258-.007-.05-.011-.1-.017-.151A4 4 0 0 0 17.32 5z"/>
  </svg>
</svg>
